# xmcd
#
# Track frame offsets:
#	150
#	15301
#	30891
#	40860
#	54812
#	67677
#	78108
#	92540
#	106988
#	117486
#	128399
#	142758
#
# Disc length: 2052 seconds
#
# Revision: 0
# Processed by: cddbd v1.5.2PL0 Copyright (c) Steve Scherf et al.
# Submitted via: EasyCDDAExtractor 16.0.9.1
#
DISCID=7508020c
DTITLE=Ray Charles - N-101 Ray Charles  Blues Is My Middle Name CD 1
DYEAR=1900
DGENRE=
TTITLE0=I'm Wonderin' and Wonderin'
TTITLE1=I Found My Baby There
TTITLE2=All to Myself Alone
TTITLE3=I'm Going Down to the River
TTITLE4=Can Anyone Ask for More
TTITLE5=Ain't that Fine
TTITLE6=Walkin' and Talkin'
TTITLE7=Blues is My Middle Name
TTITLE8=Now She's Gone
TTITLE9=Hey Now
TTITLE10=Kiss Me Baby
TTITLE11=She's on the Ball
EXTD=
EXTT0=
EXTT1=
EXTT2=
EXTT3=
EXTT4=
EXTT5=
EXTT6=
EXTT7=
EXTT8=
EXTT9=
EXTT10=
EXTT11=
PLAYORDER=
